<svg viewBox="0 0 37 25" width="37" height="25" xmlns="http://www.w3.org/2000/svg">
    <g fill="none" fill-rule="evenodd">
    <path d="m0-2h111v30h-111z" fill="none"/>
        <g fill-rule="nonzero" transform="">
        <path d="m32.1158609 16.8812086c-.9245139.8774235-2.5759212 1.0303269-3.4736725.1219095l-15.5065732-15.69215457c-.7733452-.78252302-1.9904979-.84104251-2.830859-.17659162-.0101362.00767468-.0201266.01564455-.0301171.02361442-.0035732.0029518-.0071464.00590361-.0107196.00885541-.0457954.03711892-.0902783.07615652-.1322818.11873628-2.3793216 2.40771204-8.66139287 8.76722438-9.44713489 9.56251388-.00743811.0072319-.01502207.0140949-.02231434.0214744-.83642329.8463557-.83642329 2.2187966 0 3.0651524.00670889.0067891.01370947.0130617.02049128.0197033.00816734.0085602.01589714.0173418.02428325.0257545.04783729.0485571 4.59762997 4.6527059 4.59762997 4.6527059-.89570944-.906425-.98380005-2.4195931-.0861217-3.3279367l4.98689133-5.0466241c.7995244-.80908919 2.1639809-.67655323 2.9410451.0865617 3.0962247 3.1470649 11.1275655 11.2606862 11.1810908 11.3148518.6434698.6511678 1.5943817.8007504 2.3797591.4500762.2621571-.1078146.5076878-.2690568.7203304-.4842433.0479102-.0484096 4.6882729-4.7443594 4.6882729-4.7443594" fill="#00cc62"/>
            <g fill="#663991">
                <path d="m3.44 16.8812086c.92451391.8774235 2.57592122 1.0303269 3.47359958.1219095l15.50664612-15.69215457c.7733452-.78252302 1.9904979-.84104251 2.830859-.17659162.0101362.00767468.0201266.01564455.0301171.02361442.0035732.0029518.0071464.00590361.0107196.00885541.0457954.03711892.0902783.07615652.1322818.11873628 2.3793216 2.40771204 8.6613929 8.76722438 9.4471349 9.56251388.0074381.0072319.0150221.0140949.0223143.0214744.8364233.8463557.8364233 2.2187966 0 3.0651524-.0067089.0067891-.0137094.0130617-.0204912.0197033-.0081674.0085602-.0158972.0173418-.0242833.0257545-.0478373.0485571-4.59763 4.6527059-4.59763 4.6527059.8957095-.906425.9838001-2.4195931.0861217-3.3279367l-4.9868913-5.0466241c-.7995244-.80908919-2.1639809-.67655323-2.9411181.0865617-3.0961517 3.1470649-11.1274925 11.2606862-11.1810178 11.3148518-.6434698.6511678-1.59438174.8007504-2.37975915.4500762-.26215708-.1078146-.50768779-.2690568-.72033037-.4842433-.04791021-.0484096-4.68827288-4.7443594-4.68827288-4.7443594"/>
            </g>
        </g>
    </g>
</svg>
