<svg height="23" width="111" xmlns="http://www.w3.org/2000/svg">
  <g fill="none" fill-rule="evenodd">
    <path d="M0-2h111v30H0z"/>
    <g fill-rule="nonzero">
      <path d="M32.116 16.881c-.925.878-2.576 1.03-3.474.122L13.136 1.311a2.123 2.123 0 0 0-2.831-.177l-.03.024-.011.009c-.046.037-.09.076-.132.119-2.38 2.407-8.662 8.767-9.447 9.562l-.023.022a2.186 2.186 0 0 0 0 3.065l.02.02.025.025 4.598 4.653c-.896-.907-.984-2.42-.087-3.328l4.987-5.047c.8-.809 2.164-.676 2.941.087 3.097 3.147 11.128 11.26 11.181 11.315.644.65 1.595.8 2.38.45.262-.108.508-.27.72-.484l4.689-4.745" fill="#00cc62"/>
      <g fill="#663991">
        <path d="M3.44 16.881c.925.878 2.576 1.03 3.474.122L22.42 1.311a2.123 2.123 0 0 1 2.831-.177l.03.024.01.009c.047.037.091.076.133.119 2.38 2.407 8.662 8.767 9.447 9.562l.023.022a2.186 2.186 0 0 1 0 3.065l-.02.02-.025.025-4.598 4.653c.896-.907.984-2.42.086-3.328l-4.987-5.047c-.799-.809-2.163-.676-2.94.087-3.097 3.147-11.128 11.26-11.182 11.315-.643.65-1.594.8-2.38.45a2.173 2.173 0 0 1-.72-.484L3.44 16.88M54.5 7.882c2.144 0 3.488 1.325 3.488 4.41v5.863a.02.02 0 0 1-.02.021H55.36a.02.02 0 0 1-.02-.02v-5.208c0-1.617-.485-2.629-1.73-2.629-1.116 0-2.015.981-2.015 2.791v5.046a.02.02 0 0 1-.02.02h-2.608a.02.02 0 0 1-.02-.02v-5.207c0-1.618-.514-2.63-1.75-2.63-1.185 0-2.084.982-2.084 2.792v5.035a.02.02 0 0 1-.02.02h-2.608a.02.02 0 0 1-.02-.02V8.076c0-.012.009-.022.02-.022h1.343c.71 0 1.285.589 1.285 1.315 0 .011.009.02.02.02a.02.02 0 0 0 .015-.007c.78-.976 1.855-1.5 2.949-1.5 1.3 0 2.325.503 2.929 1.618a.02.02 0 0 0 .017.01h.008a.02.02 0 0 0 .016-.007c.81-1.057 2.023-1.62 3.433-1.62zM62.993 11.974h4.624c-.283-1.055-1.049-1.742-2.265-1.742-1.143 0-2.034.587-2.359 1.742zm7.413.966c0 .318-.021.776-.073.955h-7.35c.335 1.185 1.331 1.902 2.673 1.912a3.202 3.202 0 0 0 1.72-.455 1.458 1.458 0 0 1 1.708.145l.903.798c-.892 1.075-2.422 1.881-4.53 1.881-3.072 0-5.4-2.05-5.4-5.156 0-3.027 2.223-5.138 5.2-5.138 3.084 0 5.15 2.14 5.15 5.058zM78.466 7.882c.083 0 .156 0 .219.01v2.976c-.282-.02-.585-.03-.742-.03-1.725 0-2.666 1.134-2.666 2.642v4.696h-2.801V8.054h1.407c.77 0 1.394.605 1.394 1.35v.138h.032c.794-1.073 1.923-1.66 3.156-1.66zM85.284 18.176c-3.204 0-5.564-2.08-5.564-5.137 0-3.056 2.349-5.157 5.705-5.157 1.72 0 3.507.647 4.6 1.912l-1.028.815a1.537 1.537 0 0 1-1.7.124 3.458 3.458 0 0 0-1.753-.451c-1.732 0-2.88 1.125-2.88 2.738 0 1.632 1.18 2.757 2.902 2.757.688 0 1.272-.172 1.739-.424a1.539 1.539 0 0 1 1.678.152l1.086.88c-.931.995-2.61 1.791-4.785 1.791zM96.243 15.787c1.41 0 2.529-1.135 2.529-2.748 0-1.632-1.09-2.757-2.53-2.757-1.516 0-2.538 1.184-2.538 2.757 0 1.544 1.05 2.748 2.539 2.748zm0 2.39c-3.093 0-5.174-2.17-5.174-5.138 0-2.976 2.081-5.157 5.174-5.157 3.025 0 5.174 2.101 5.174 5.157 0 3.047-2.15 5.137-5.174 5.137zM106.715 18.176c-1.67 0-3.09-.507-4.228-1.463l.541-.735a1.43 1.43 0 0 1 1.807-.401c.572.304 1.19.46 1.9.46.815 0 1.285-.34 1.285-.827 0-.458-.543-.687-1.9-1.105-1.722-.538-3.215-1.314-3.215-3.236 0-1.802 1.629-2.987 3.758-2.987 1.451 0 2.63.379 3.821 1.255l-.568.817a1.43 1.43 0 0 1-1.792.449 3.422 3.422 0 0 0-1.492-.37c-.46 0-1.023.229-1.023.746 0 .419.543.707 1.566 1.076 2.265.796 3.591 1.264 3.591 3.225 0 1.763-1.315 3.096-4.05 3.096z"/>
      </g>
    </g>
  </g>
</svg>
